<svg width="211" height="211" viewBox="0 0 211 211" fill="none" xmlns="http://www.w3.org/2000/svg">
<path fill-rule="evenodd" clip-rule="evenodd" d="M124.117 83.3605C108.575 73.4782 88.1427 76.4498 76.0597 90.3497V90.3497C63.2275 105.111 64.0117 127.287 77.8547 141.106L113.66 176.847C131.743 194.899 161.518 193.164 177.383 173.135V173.135C193.13 153.254 188.21 124.115 166.809 110.506L124.117 83.3605Z" stroke="#00447C" stroke-width="2.8" stroke-linejoin="round"/>
<path d="M133.574 89.8855L84.4506 147.658" stroke="#00447C" stroke-width="2.1" stroke-linejoin="round"/>
<path d="M74.8734 91.5805L88.3287 103.549" stroke="#00447C" stroke-width="2.1" stroke-linejoin="round"/>
<rect width="11.2544" height="26.2603" rx="5.62722" transform="matrix(-0.656059 0.75471 0.75471 0.656059 91.8342 99.3984)" fill="#00447C"/>
<path d="M74.8726 91.5801C74.8726 91.5801 31.4268 60.1316 61.6504 38.3961C85.302 21.3868 12.0085 18.8074 0.980415 0.821777" stroke="#00447C" stroke-width="2.1"/>
</svg>
